<svg width="66" height="54" viewBox="0 0 66 54" fill="none" xmlns="http://www.w3.org/2000/svg">
<path d="M0 0.05C0.145377 0.0234704 0.292377 0.00676593 0.44 0C9.77333 0 19.1067 0 28.44 0C29.77 0 31.1 0.14 32.56 0.22C32.26 0.68 32.05 1.02 31.83 1.35C29.8993 4.14855 28.3144 7.17054 27.11 10.35C26.1058 13.2498 25.5395 16.2832 25.43 19.35C25.29 22.52 25.27 25.7 25.26 28.87C25.26 36.87 25.26 44.96 25.26 53.01V53.84H8.26V50.18H17.68C17.58 49.82 17.5 49.54 17.43 49.26C17.1202 48.0416 17.19 46.7576 17.63 45.58C17.6808 45.3963 17.7512 45.2186 17.84 45.05C19.56 42.05 19.45 38.69 19.33 35.36C19.3166 35.2752 19.2965 35.1916 19.27 35.11L4.36 38.93C4.51 38.63 4.61 38.43 4.72 38.24C6.77333 34.7467 8.82667 31.2433 10.88 27.73C10.9872 27.5853 11.045 27.41 11.045 27.23C11.045 27.05 10.9872 26.8747 10.88 26.73C8.83333 23.2367 6.79 19.7467 4.75 16.26L4.34 15.52L19.22 19.32C19.28 19.26 19.34 19.24 19.34 19.21C19.41 16.03 19.56 12.86 18.17 9.86C17.1518 7.56213 15.5313 5.58228 13.48 4.13C13.1833 3.93152 12.8368 3.82062 12.48 3.81C8.58 3.81 4.69 3.81 0.79 3.81C0.54 3.81 0.29 3.81 0.04 3.81L0 0.05Z" fill="white"/>
<path d="M65.0001 36.3802C64.2301 37.0002 63.4501 37.6002 62.7001 38.2402C58.0641 42.2477 52.9483 45.6639 47.4701 48.4102L47.0101 48.6202C46.9536 48.6255 46.8966 48.6255 46.8401 48.6202C46.8401 48.4202 46.8401 48.2202 46.8401 48.0202C46.8401 42.9202 46.8401 37.8202 46.8401 32.7202C46.6832 28.3688 48.1038 24.1072 50.8401 20.7202C52.6101 18.6302 54.6301 16.7202 56.5701 14.7202C58.1866 17.0349 59.4129 19.5989 60.2001 22.3102C60.8501 24.6902 61.2701 27.1302 61.7501 29.5502C62.2731 31.9566 63.371 34.2006 64.9501 36.0902C64.9501 36.0902 65.0201 36.0902 65.0601 36.0902L65.0001 36.3802ZM51.2101 29.0002V32.8002H54.9101V29.0002H51.2101Z" fill="white"/>
<path d="M43.5801 3.53017C42.6401 5.00017 41.7101 6.38017 40.8201 7.81017C38.1567 11.8349 36.2301 16.3011 35.1301 21.0002C34.4778 24.0034 34.1426 27.0669 34.1301 30.1402C34.1301 37.5302 34.1301 44.9102 34.1301 52.3002V53.2302L29.1301 53.8102C29.1301 53.5402 29.0601 53.4002 29.0601 53.2602C29.0601 42.6702 29.0601 32.0902 29.1201 21.5102C29.0568 17.4183 29.8718 13.3603 31.5101 9.61017C32.9191 6.71726 34.5682 3.94757 36.4401 1.33017C36.4923 1.2637 36.5592 1.21017 36.6355 1.17375C36.7118 1.13733 36.7955 1.119 36.8801 1.12017C39.1912 1.68813 41.4367 2.49584 43.5801 3.53017Z" fill="white"/>
<path d="M46.9301 5.37012C49.6746 7.07586 52.1402 9.19401 54.2401 11.6501C52.5101 13.4401 50.8101 15.2101 49.0801 16.9401C46.1201 19.939 44.1635 23.7823 43.4801 27.9401C43.1832 29.5903 43.0326 31.2635 43.0301 32.9401C43.0001 38.5301 43.0001 44.1201 43.0001 49.7001C43.0235 49.8085 43.0253 49.9204 43.0052 50.0295C42.9852 50.1385 42.9438 50.2425 42.8834 50.3355C42.8229 50.4285 42.7447 50.5085 42.6532 50.5711C42.5616 50.6337 42.4586 50.6775 42.3501 50.7001C40.9101 51.1701 39.4901 51.7001 38.0001 52.2301C38.0001 51.9801 38.0001 51.8201 38.0001 51.6601C38.0001 44.6101 38.0501 37.5601 38.0001 30.5101C37.8787 23.1542 39.988 15.9339 44.0501 9.80012C45.0001 8.34012 46.0001 6.86012 46.9301 5.37012Z" fill="white"/>
</svg>
