<svg width="43" height="59" viewBox="0 0 43 59" fill="none" xmlns="http://www.w3.org/2000/svg">
<path d="M0 58.1102C0 57.8802 0 57.6502 0 57.4302V43.4302H42.87V57.4302C42.87 57.6502 42.87 57.8802 42.87 58.1102H0ZM14.22 50.5302H28.67V47.2102H14.22V50.5302Z" fill="white"/>
<path d="M41 0V7.24H2V0H41Z" fill="white"/>
<path d="M39 30.14C36.93 30.14 34.93 30.14 32.93 30.14C32.7572 30.1025 32.6062 29.9983 32.51 29.85C32.0239 29.0817 31.3514 28.4488 30.5549 28.0102C29.7585 27.5716 28.8641 27.3417 27.955 27.3417C27.0458 27.3417 26.1514 27.5716 25.355 28.0102C24.5586 28.4488 23.886 29.0817 23.4 29.85C23.3308 29.9383 23.2448 30.012 23.147 30.067C23.0491 30.1219 22.9414 30.1569 22.83 30.17C16.6566 30.17 10.49 30.17 4.32996 30.17C4.20675 30.1777 4.08317 30.1777 3.95996 30.17V10.73H8.45996V25.62H34.46V10.73H39V30.14Z" fill="white"/>
<path d="M30.9999 22.22H11.9099V10.73H30.9999V22.22Z" fill="white"/>
<path d="M26.1999 37.8398V39.9098H0.659912C0.719912 39.7398 0.759912 39.5798 0.819912 39.4298C1.56991 37.6098 2.32991 35.7998 3.05991 33.9998C3.09557 33.8575 3.18292 33.7337 3.30494 33.6523C3.42695 33.571 3.57489 33.538 3.71991 33.5598H22.0999C22.3799 33.5598 22.5899 33.5598 22.6799 33.9198C22.8676 34.7854 23.2701 35.5899 23.8503 36.2592C24.4305 36.9285 25.1697 37.4411 25.9999 37.7498L26.1999 37.8398Z" fill="white"/>
<path d="M42.2901 39.9398H29.6201C29.6201 39.2798 29.6201 38.6298 29.6201 37.9398C29.6201 37.8498 29.7601 37.7298 29.8601 37.6898C30.6803 37.3652 31.4092 36.8461 31.9841 36.1771C32.559 35.5081 32.9626 34.7094 33.1601 33.8498C33.1984 33.766 33.2568 33.693 33.33 33.6372C33.4033 33.5814 33.4892 33.5445 33.5801 33.5298C35.4901 33.5298 37.4001 33.5298 39.3001 33.5298C39.3786 33.5309 39.4557 33.5505 39.5252 33.587C39.5947 33.6235 39.6546 33.6758 39.7001 33.7398C40.5801 35.7898 41.4201 37.8298 42.2901 39.9398Z" fill="white"/>
<path d="M29.89 32.7199C29.9356 33.0056 29.9187 33.2978 29.8404 33.5763C29.7622 33.8548 29.6244 34.113 29.4366 34.3331C29.2489 34.5532 29.0156 34.73 28.7529 34.8512C28.4902 34.9724 28.2043 35.0352 27.915 35.0352C27.6257 35.0352 27.3399 34.9724 27.0772 34.8512C26.8145 34.73 26.5812 34.5532 26.3934 34.3331C26.2057 34.113 26.0679 33.8548 25.9896 33.5763C25.9114 33.2978 25.8944 33.0056 25.94 32.7199C26.015 32.2501 26.2551 31.8224 26.6171 31.5136C26.979 31.2048 27.4392 31.0352 27.915 31.0352C28.3908 31.0352 28.851 31.2048 29.213 31.5136C29.575 31.8224 29.815 32.2501 29.89 32.7199Z" fill="white"/>
</svg>
