<svg width="72" height="64" viewBox="0 0 72 64" fill="none" xmlns="http://www.w3.org/2000/svg">
<path d="M71.33 13.3903C70.82 15.3103 70.33 17.2303 69.81 19.1503C66.79 31.0503 63.7733 42.9369 60.76 54.8103C60.5863 55.6003 60.1912 56.3246 59.621 56.8983C59.0508 57.4721 58.329 57.8717 57.54 58.0503V57.1503C57.54 43.6703 57.54 30.1836 57.54 16.6903C57.562 15.5511 57.3529 14.4192 56.9252 13.3631C56.4975 12.3071 55.8602 11.3486 55.0517 10.5457C54.2432 9.74287 53.2804 9.11222 52.2213 8.6919C51.1623 8.27159 50.029 8.07032 48.89 8.10027H36C36.361 6.70707 36.8085 5.33774 37.34 4.00027C37.7453 3.19266 38.4191 2.55133 39.2457 2.18638C40.0723 1.82143 41.0002 1.75563 41.87 2.00027C49.2 3.83027 56.52 5.70027 63.87 7.55027C64.97 7.83027 66.06 8.18027 67.17 8.38027C68.1454 8.47567 69.0685 8.86677 69.8155 9.50121C70.5625 10.1356 71.0979 10.9832 71.35 11.9303L71.33 13.3903Z" fill="white"/>
<path d="M0 22.1704C0.363687 20.9664 1.07728 19.8978 2.05 19.1004C8.19 13.2604 14.32 7.41043 20.44 1.55043C22.64 -0.549571 24.99 -0.519571 27.08 1.66043C29.17 3.84043 31.08 5.85043 33.23 8.10043H22.35C21.2214 8.07459 20.0991 8.27734 19.0509 8.69648C18.0026 9.11562 17.05 9.74249 16.2503 10.5394C15.4507 11.3363 14.8205 12.2867 14.3976 13.3334C13.9748 14.3802 13.7681 15.5017 13.79 16.6304V38.9004C13.56 38.6904 13.41 38.5804 13.28 38.4404C9.28 34.2404 5.28 30.0604 1.28 25.8304C0.767593 25.1254 0.338096 24.3637 0 23.5604L0 22.1704Z" fill="white"/>
<path d="M18 37.7506V16.8606C17.9426 16.243 18.0223 15.6205 18.2335 15.0373C18.4446 14.4542 18.782 13.9249 19.2215 13.4873C19.661 13.0498 20.1917 12.7147 20.7758 12.5061C21.3598 12.2975 21.9828 12.2205 22.6 12.2806H48.76C49.3773 12.2205 50.0002 12.2975 50.5843 12.5061C51.1683 12.7147 51.699 13.0498 52.1385 13.4873C52.578 13.9249 52.9154 14.4542 53.1266 15.0373C53.3377 15.6205 53.4174 16.243 53.36 16.8606V58.7206C53.4103 59.3326 53.3265 59.9481 53.1143 60.5244C52.9022 61.1006 52.5668 61.6236 52.1316 62.0568C51.6965 62.4901 51.172 62.8231 50.5949 63.0328C50.0177 63.2424 49.4018 63.3236 48.79 63.2706H22.53C21.9215 63.3174 21.31 63.2317 20.7378 63.0193C20.1655 62.8069 19.6462 62.473 19.2155 62.0404C18.7849 61.6079 18.4532 61.0871 18.2434 60.5139C18.0335 59.9408 17.9505 59.3289 18 58.7206V37.7506ZM35.69 31.3206L35.39 31.1006C34.2745 30.2422 32.8784 29.8319 31.4759 29.9503C30.0733 30.0687 28.7658 30.7073 27.81 31.7406C26.5455 33.0988 25.8721 34.9035 25.9377 36.758C26.0033 38.6126 26.8027 40.3652 28.16 41.6306C30.11 43.4106 32.1 45.1606 34.07 46.9206C34.2719 47.1569 34.5226 47.3467 34.8048 47.4769C35.0871 47.607 35.3942 47.6744 35.705 47.6744C36.0158 47.6744 36.323 47.607 36.6052 47.4769C36.8875 47.3467 37.1382 47.1569 37.34 46.9206C39.23 45.2306 41.1 43.5306 43 41.8606C44.3548 40.7366 45.2103 39.1227 45.38 37.3706C45.5849 36.1058 45.409 34.8088 44.8748 33.6442C44.3406 32.4797 43.4722 31.5003 42.38 30.8306C40.11 29.3906 37.84 29.6506 35.66 31.3206H35.69ZM30 22.1406C29.9937 21.7248 29.8634 21.3204 29.626 20.979C29.3885 20.6376 29.0546 20.3749 28.667 20.2243C28.2794 20.0737 27.8557 20.0422 27.4501 20.1338C27.0444 20.2254 26.6754 20.4358 26.39 20.7383C26.1047 21.0408 25.916 21.4215 25.8482 21.8317C25.7804 22.242 25.8366 22.6632 26.0094 23.0414C26.1823 23.4195 26.4641 23.7376 26.8187 23.9548C27.1733 24.172 27.5846 24.2784 28 24.2606C28.5412 24.2299 29.0501 23.9931 29.4221 23.5988C29.7941 23.2045 30.0009 22.6826 30 22.1406ZM45.6 53.3906C45.604 52.976 45.4845 52.5695 45.2569 52.223C45.0292 51.8765 44.7036 51.6055 44.3215 51.4445C43.9394 51.2835 43.518 51.2399 43.111 51.3191C42.704 51.3982 42.3297 51.5967 42.0358 51.8892C41.7419 52.1817 41.5417 52.555 41.4605 52.9616C41.3794 53.3682 41.421 53.7898 41.5801 54.1726C41.7393 54.5555 42.0087 54.8824 42.3541 55.1118C42.6995 55.3411 43.1054 55.4625 43.52 55.4606C44.0596 55.4426 44.5715 55.2176 44.9496 54.8321C45.3276 54.4466 45.5426 53.9304 45.55 53.3906H45.6Z" fill="white"/>
</svg>
