<svg width="61" height="61" viewBox="0 0 61 61" fill="none" xmlns="http://www.w3.org/2000/svg">
<path d="M32.24 60.6799V53.5699C37.0585 53.1741 41.6339 51.2866 45.33 48.1699L50.33 53.1699C48.7711 54.5623 47.0642 55.7796 45.24 56.7999C41.5525 58.8914 37.4617 60.1732 33.24 60.5599C33.1276 60.5804 33.0172 60.6106 32.91 60.6499L32.24 60.6799Z" fill="white"/>
<path d="M33 0C34.24 0.2 35.49 0.35 36.72 0.61C41.6731 1.6465 46.279 3.93222 50.1 7.25L50.39 7.49L45.33 12.49C41.6283 9.3857 37.0548 7.506 32.24 7.11V0H33Z" fill="white"/>
<path d="M0 27.73C0.23 26.34 0.41 24.93 0.72 23.55C1.77729 18.7395 4.02222 14.2703 7.25 10.55C7.32841 10.4608 7.40185 10.3673 7.47 10.27L12.47 15.27C9.35505 18.9671 7.46779 23.542 7.07 28.36H0V27.73Z" fill="white"/>
<path d="M28.4399 0V7.11C23.6556 7.52029 19.115 9.39939 15.4399 12.49L10.4399 7.49C12.0012 6.09156 13.7154 4.87385 15.5499 3.86C19.1743 1.79712 23.1905 0.516282 27.3399 0.1C27.4699 0.1 27.5999 0.03 27.7299 0H28.4399Z" fill="white"/>
<path d="M60.68 28.4401H53.57C53.1677 23.6556 51.2915 19.1137 48.2 15.4401L53.29 10.3301C54.22 11.6301 55.29 12.9401 56.15 14.3301C58.6354 18.2514 60.1537 22.7071 60.58 27.3301C60.6037 27.482 60.6371 27.6323 60.68 27.7801V28.4401Z" fill="white"/>
<path d="M0 32.2402H7.11C7.51578 37.0257 9.39542 41.5675 12.49 45.2402L7.49 50.2402C6.097 48.6746 4.87974 46.961 3.86 45.1302C1.80639 41.5235 0.525906 37.5288 0.1 33.4002C0.074272 33.2651 0.0408848 33.1316 0 33.0002L0 32.2402Z" fill="white"/>
<path d="M60.6799 33.0001C60.4399 34.3901 60.2699 35.8101 59.9599 37.1901C58.8841 42.002 56.6261 46.47 53.3899 50.1901C53.3292 50.2684 53.2757 50.3521 53.2299 50.4401L48.1699 45.3701C49.6972 43.5467 50.9411 41.5038 51.8599 39.3101C52.779 37.0761 53.3555 34.7162 53.5699 32.3101H60.6799V33.0001Z" fill="white"/>
<path d="M27.73 60.6799C26.34 60.4399 24.93 60.2699 23.55 59.9599C18.7142 58.884 14.2246 56.6151 10.49 53.3599C10.4294 53.308 10.3621 53.2643 10.29 53.2299L15.35 48.1699C19.0486 51.2826 23.6226 53.1695 28.44 53.5699V60.6799H27.73Z" fill="white"/>
<path d="M30.3401 10.8198C34.2003 10.8198 37.9739 11.9644 41.1838 14.1088C44.3936 16.2533 46.8955 19.3013 48.3732 22.8675C49.851 26.4338 50.2381 30.3581 49.4857 34.1443C48.7334 37.9305 46.8752 41.4087 44.1463 44.139C41.4174 46.8693 37.9402 48.7292 34.1544 49.4835C30.3685 50.2378 26.444 49.8527 22.877 48.3768C19.31 46.9009 16.2607 44.4006 14.1146 41.1918C11.9686 37.9831 10.822 34.2101 10.8201 30.3498C10.8306 25.1751 12.8903 20.2152 16.5484 16.5552C20.2065 12.8952 25.1654 10.833 30.3401 10.8198ZM32.2301 42.1098C32.2301 41.0298 32.2301 39.9798 32.2301 38.9398C32.2053 38.7698 32.2449 38.5966 32.341 38.4542C32.4372 38.3118 32.5831 38.2104 32.7501 38.1698C33.8088 37.7408 34.7002 36.9807 35.291 36.003C35.8818 35.0253 36.1403 33.8826 36.0277 32.7458C35.9152 31.609 35.4377 30.5392 34.6666 29.6963C33.8956 28.8535 32.8724 28.2829 31.7501 28.0698C31.145 28.0146 30.5375 27.9913 29.9301 27.9998C29.5533 27.9838 29.1955 27.8301 28.9246 27.5678C28.6536 27.3056 28.4882 26.953 28.4599 26.577C28.4315 26.201 28.5421 25.8276 28.7707 25.5277C28.9993 25.2278 29.33 25.0222 29.7001 24.9498C29.9702 24.8539 30.2578 24.8171 30.5434 24.8421C30.829 24.867 31.1058 24.9531 31.3553 25.0944C31.6047 25.2357 31.8208 25.4289 31.989 25.6611C32.1572 25.8932 32.2735 26.1588 32.3301 26.4398H36.0001C36.2001 24.3898 34.8401 22.5398 32.2301 21.2998V17.5798H28.4401V21.2998L27.9501 21.4898C26.9024 21.9161 26.0181 22.6658 25.4262 23.6296C24.8343 24.5935 24.5657 25.7212 24.6594 26.8484C24.7532 27.9756 25.2044 29.0435 25.9474 29.8963C26.6904 30.7492 27.6863 31.3425 28.7901 31.5898C29.4517 31.694 30.1203 31.7475 30.7901 31.7498C31.1477 31.7812 31.483 31.9373 31.7371 32.1908C31.9913 32.4444 32.1482 32.7793 32.1804 33.1368C32.2126 33.4944 32.118 33.8519 31.9132 34.1468C31.7084 34.4417 31.4064 34.6551 31.0601 34.7498C30.7888 34.8582 30.4971 34.9058 30.2054 34.8893C29.9138 34.8729 29.6293 34.7927 29.3719 34.6545C29.1145 34.5163 28.8906 34.3234 28.7158 34.0894C28.541 33.8553 28.4196 33.5858 28.3601 33.2998H24.6801C24.665 33.4828 24.665 33.6668 24.6801 33.8498C24.7775 34.8072 25.1398 35.7185 25.7262 36.4816C26.3126 37.2446 27.1 37.8292 28.0001 38.1698C28.1666 38.2126 28.3107 38.3168 28.4035 38.4615C28.4962 38.6062 28.5307 38.7807 28.5001 38.9498C28.5001 39.9498 28.5001 41.0398 28.5001 42.1098H32.2301Z" fill="white"/>
</svg>
