<svg xmlns="http://www.w3.org/2000/svg" viewBox="0 0 29.46 29.46"><defs><style>.cls-1{fill:#b22222;}.cls-2{fill:#fff;}</style></defs><title>Asset 34MB</title><g id="Layer_2" data-name="Layer 2"><g id="Layer_1-2" data-name="Layer 1"><rect class="cls-1" width="29.46" height="29.46" rx="2.51" transform="translate(29.46 0) rotate(90)"/><circle class="cls-2" cx="7.97" cy="14.69" r="1.21"/><path class="cls-2" d="M18.19,23.92a12.54,12.54,0,0,0,0-18.38.74.74,0,0,0-1,0,.73.73,0,0,0,0,1,11.08,11.08,0,0,1,0,16.24.71.71,0,0,0-.24.53.74.74,0,0,0,1.24.54Z"/><path class="cls-2" d="M15.16,21.23a9,9,0,0,0,0-13,.74.74,0,0,0-1,1,7.51,7.51,0,0,1,0,10.91.77.77,0,0,0-.21.52.74.74,0,0,0,1.25.53Z"/><path class="cls-2" d="M12.12,18.29a5.26,5.26,0,0,0,1.53-3.57h0v-.05h0a5.26,5.26,0,0,0-1.53-3.57.74.74,0,0,0-1,0,.75.75,0,0,0-.21.52.73.73,0,0,0,.21.52,3.84,3.84,0,0,1,1.11,2.54h0v.05h0a3.86,3.86,0,0,1-1.11,2.54.73.73,0,0,0,1,1Z"/></g></g></svg>