<svg width="57" height="54" viewBox="0 0 57 54" fill="none" xmlns="http://www.w3.org/2000/svg">
<path d="M0 50.9999C0.128563 50.7593 0.328003 50.564 0.571282 50.4406C0.814561 50.3171 1.08991 50.2715 1.36 50.3099C5.05 50.3099 8.75 50.3099 12.45 50.3099C12.6378 50.3324 12.8283 50.3065 13.0033 50.2348C13.1783 50.163 13.3321 50.0477 13.45 49.8999C14.35 48.6399 15.58 48.3899 17.13 48.4099C23.07 48.4999 29.02 48.4099 34.97 48.4099C35.1563 48.38 35.3472 48.4004 35.523 48.4689C35.6988 48.5375 35.8531 48.6517 35.97 48.7999C36.3892 49.3586 36.9514 49.7938 37.5973 50.0596C38.2433 50.3253 38.949 50.4118 39.64 50.3099C42.79 50.1799 45.94 50.3099 49.09 50.3099C50.25 50.3099 50.5 50.5599 50.5 51.6699V53.9999H0V50.9999ZM19.37 52.0999V50.3399H17.51V52.0999H19.37ZM26.16 50.3299H24.31V52.0799H26.16V50.3299ZM31.16 50.3299V52.0899H33V50.3299H31.16Z" fill="white"/>
<path d="M1.99995 48.4198V47.8398C1.99995 39.1398 1.99995 30.4398 1.99995 21.7398C1.93053 21.0736 2.10221 20.4047 2.48384 19.8542C2.86546 19.3038 3.43174 18.9084 4.07995 18.7398C4.43353 18.6549 4.79635 18.6146 5.15995 18.6198C18.5733 18.6198 31.9833 18.6198 45.3899 18.6198C45.808 18.5716 46.2316 18.6163 46.6304 18.7506C47.0293 18.8849 47.3935 19.1056 47.6973 19.3969C48.001 19.6882 48.2367 20.043 48.3875 20.4359C48.5384 20.8288 48.6007 21.2501 48.5699 21.6698C48.5699 24.7598 48.5699 27.8598 48.5699 30.9498V31.5998H51.3999V14.8198L50.8899 14.6198C50.0591 14.3024 49.3709 13.6955 48.952 12.9109C48.533 12.1263 48.4116 11.2168 48.6099 10.3498C48.8457 9.50665 49.3562 8.76635 50.0606 8.24634C50.7649 7.72634 51.6227 7.45641 52.4979 7.47938C53.3731 7.50235 54.2156 7.81691 54.8917 8.37314C55.5678 8.92938 56.0388 9.69545 56.2299 10.5498C56.377 11.4012 56.2189 12.2773 55.7836 13.0236C55.3482 13.7699 54.6635 14.3387 53.8499 14.6298C53.6973 14.6613 53.563 14.7509 53.4753 14.8797C53.3875 15.0084 53.3534 15.1663 53.3799 15.3198C53.3799 23.4531 53.3799 31.5898 53.3799 39.7298C53.4291 40.417 53.2286 41.0989 52.8152 41.65C52.4019 42.2012 51.8034 42.5846 51.1299 42.7298C50.8795 42.7779 50.625 42.8013 50.3699 42.7998C49.7799 42.7998 49.1999 42.7998 48.5399 42.7998V48.3898H47.9299C44.8499 48.3898 41.7699 48.3898 38.6999 48.3898C38.403 48.3849 38.1183 48.271 37.8999 48.0698C36.8999 46.7698 35.6399 46.4998 34.0199 46.5198C27.6099 46.6098 21.1999 46.5198 14.7799 46.5198C14.5925 46.5019 14.4035 46.5298 14.2293 46.6012C14.0551 46.6727 13.9008 46.7854 13.7799 46.9298C13.3688 47.4831 12.8143 47.9135 12.1762 48.1744C11.5382 48.4352 10.8409 48.5166 10.1599 48.4098C7.42995 48.3298 4.73995 48.4198 1.99995 48.4198ZM3.99995 44.6898H44.2399C45.8499 44.6898 46.5699 43.9998 46.5699 42.4398C46.5699 35.8798 46.5699 29.3232 46.5699 22.7698C46.5699 21.1898 45.8599 20.4998 44.1899 20.4998H3.99995V44.6898Z" fill="white"/>
<path d="M32 8.39L41.7 2.81C41.43 3.87 41.19 4.81 40.94 5.76C40.03 9.24 39.11 12.76 38.21 16.21C38.203 16.299 38.1774 16.3856 38.135 16.4642C38.0925 16.5427 38.0341 16.6115 37.9635 16.6661C37.8928 16.7208 37.8115 16.76 37.7248 16.7813C37.6381 16.8027 37.5479 16.8056 37.46 16.79C29.2866 16.79 21.12 16.79 12.96 16.79C12.52 16.79 12.34 16.69 12.22 16.26C11.1 11.91 9.94998 7.56 8.79998 3.26C8.79161 3.13681 8.79161 3.01319 8.79998 2.89L18.44 8.44L25.23 0L32 8.39ZM25.21 14.89C25.9615 14.9061 26.6888 14.6236 27.2324 14.1043C27.7761 13.5851 28.0916 12.8715 28.11 12.12C28.0665 11.379 27.7415 10.6827 27.2015 10.1734C26.6614 9.66416 25.9472 9.38051 25.205 9.38051C24.4627 9.38051 23.7485 9.66416 23.2085 10.1734C22.6685 10.6827 22.3435 11.379 22.3 12.12C22.3077 12.496 22.3902 12.8667 22.5428 13.2104C22.6954 13.5542 22.915 13.864 23.1887 14.1219C23.4624 14.3798 23.7848 14.5806 24.137 14.7125C24.4892 14.8443 24.8642 14.9047 25.24 14.89H25.21ZM15.48 13.08C15.3531 13.0706 15.2256 13.088 15.1058 13.131C14.986 13.174 14.8766 13.2416 14.7846 13.3295C14.6925 13.4173 14.62 13.5236 14.5716 13.6412C14.5231 13.7589 14.4999 13.8855 14.5034 14.0127C14.5069 14.1399 14.5371 14.2649 14.592 14.3798C14.6468 14.4946 14.7251 14.5966 14.8219 14.6793C14.9186 14.762 15.0316 14.8235 15.1536 14.8598C15.2755 14.896 15.4038 14.9063 15.53 14.89C15.6569 14.8994 15.7844 14.882 15.9041 14.839C16.0239 14.796 16.1334 14.7284 16.2254 14.6405C16.3174 14.5526 16.39 14.4464 16.4384 14.3288C16.4868 14.2111 16.51 14.0845 16.5065 13.9573C16.503 13.8301 16.4728 13.7051 16.418 13.5902C16.3632 13.4754 16.2848 13.3734 16.1881 13.2907C16.0914 13.208 15.9783 13.1465 15.8564 13.1102C15.7344 13.074 15.6062 13.0637 15.48 13.08ZM34.9 13.08C34.6657 13.1029 34.4469 13.2077 34.2823 13.376C34.1177 13.5443 34.0177 13.7652 34 14C34.0024 14.127 34.0306 14.2521 34.0827 14.3679C34.1349 14.4837 34.2099 14.5877 34.3034 14.6737C34.3968 14.7597 34.5067 14.8258 34.6265 14.8682C34.7462 14.9105 34.8732 14.9281 35 14.92C35.1268 14.9334 35.255 14.9199 35.3763 14.8805C35.4976 14.8411 35.6093 14.7766 35.7041 14.6913C35.7989 14.606 35.8747 14.5017 35.9266 14.3852C35.9784 14.2687 36.0052 14.1425 36.0052 14.015C36.0052 13.8875 35.9784 13.7613 35.9266 13.6448C35.8747 13.5283 35.7989 13.424 35.7041 13.3387C35.6093 13.2534 35.4976 13.1889 35.3763 13.1495C35.255 13.1101 35.1268 13.0966 35 13.11L34.9 13.08Z" fill="white"/>
<path d="M17.4401 42.8099H5.87012V26.1099H17.4401V42.8099ZM10.5501 40.4699L10.8901 39.9099C12.2701 37.5399 13.5901 35.1299 15.0401 32.7999C15.4697 31.8834 15.6326 30.8646 15.5101 29.8599H7.82012V31.6599H13.4701L8.89012 39.5899L10.5501 40.4699Z" fill="white"/>
<path d="M44.62 26.1201V42.7901H33V26.1201H44.62ZM37.71 40.4701C37.85 40.2501 37.95 40.0801 38.05 39.9101C39.43 37.5401 40.75 35.1401 42.2 32.8101C42.6403 31.8757 42.8001 30.8336 42.66 29.8101H35V31.6301H40.64L36.07 39.5401L37.71 40.4701Z" fill="white"/>
<path d="M19.4399 22.3901H30.9999V39.1001H19.4399V22.3901ZM24.1299 36.7501L24.4499 36.2301C25.8399 33.8201 27.1899 31.3901 28.6499 29.0201C29.081 28.1078 29.2374 27.0898 29.0999 26.0901H27.3499C25.5199 26.0901 23.6899 26.0901 21.8599 26.0901C21.6899 26.0901 21.3999 26.2401 21.3899 26.3401C21.3399 26.8601 21.3899 27.3401 21.3899 27.9501H26.9999L22.4399 35.8501L24.1299 36.7501Z" fill="white"/>
<path d="M5.86011 22.3901H17.4501V24.2101H5.86011V22.3901Z" fill="white"/>
<path d="M44.59 24.2301H33V22.3901H44.59V24.2301Z" fill="white"/>
<path d="M19.4399 42.81V41H31.0499V42.82L19.4399 42.81Z" fill="white"/>
<path d="M25.25 13.0699C24.9965 13.0705 24.7522 12.9749 24.5665 12.8022C24.3809 12.6295 24.2677 12.3928 24.25 12.1399C24.2402 12.0103 24.2576 11.8801 24.3012 11.7577C24.3448 11.6353 24.4136 11.5233 24.5031 11.4291C24.5926 11.3349 24.7008 11.2605 24.8209 11.2107C24.9409 11.1609 25.0701 11.1368 25.2 11.1399C25.4519 11.1391 25.6948 11.2334 25.8802 11.404C26.0656 11.5746 26.1798 11.8088 26.2 12.0599C26.2029 12.3184 26.1056 12.568 25.9284 12.7563C25.7513 12.9446 25.5082 13.057 25.25 13.0699Z" fill="white"/>
</svg>
